<?xml version="1.0" standalone="no"?><!DOCTYPE svg PUBLIC "-//W3C//DTD SVG 1.1//EN" "http://www.w3.org/Graphics/SVG/1.1/DTD/svg11.dtd"><svg t="1733752358893" class="icon" viewBox="0 0 1024 1024" version="1.1" xmlns="http://www.w3.org/2000/svg" p-id="4416" xmlns:xlink="http://www.w3.org/1999/xlink" width="64" height="64"><path d="M773.376 637.568l-67.242667-116.693333a34.389333 34.389333 0 0 1-3.498666-18.773334l37.845333-280.618666A8.874667 8.874667 0 0 1 748.074667 213.333333a9.941333 9.941333 0 0 1 8.448 7.893334l86.272 347.989333a18.986667 18.986667 0 0 1-3.925334 16.384l-54.186666 53.930667a6.698667 6.698667 0 0 1-9.088 0.64 7.893333 7.893333 0 0 1-2.218667-2.56v-0.085334zM343.637333 764.928l-122.453333-51.2A15.488 15.488 0 0 1 213.333333 700.16v-158.293333a39.68 39.68 0 0 1 5.248-18.474667l195.584-300.544a18.432 18.432 0 0 1 13.44-7.850667h256.896c4.522667 0 7.68 4.608 7.04 10.325334l-30.634666 261.802666a29.354667 29.354667 0 0 1-7.893334 16.256l-294.826666 258.986667a15.274667 15.274667 0 0 1-14.549334 2.688z m65.066667 17.834667l142.848 59.562666a14.72 14.72 0 0 0 14.421333-2.816l166.101334-151.765333a12.8 12.8 0 0 0 2.133333-14.72l-58.282667-110.250667a8.448 8.448 0 0 0-5.205333-4.394666 6.826667 6.826667 0 0 0-6.144 1.621333L408.746667 783.018667v-0.213334z" p-id="4417"></path></svg>