<?xml version="1.0" standalone="no"?><!DOCTYPE svg PUBLIC "-//W3C//DTD SVG 1.1//EN" "http://www.w3.org/Graphics/SVG/1.1/DTD/svg11.dtd"><svg t="1733822712324" class="icon" viewBox="0 0 1024 1024" version="1.1" xmlns="http://www.w3.org/2000/svg" p-id="1037" xmlns:xlink="http://www.w3.org/1999/xlink" width="64" height="64"><path d="M512.268258 895.881229c-211.673957 0-383.881229-172.207273-383.881229-383.881229s172.207273-383.881229 383.881229-383.881229 383.881229 172.207273 383.881229 383.881229S723.941191 895.881229 512.268258 895.881229z m0-731.773913c-191.827987 0-347.892684 156.063673-347.892684 347.892684 0 191.827987 156.064697 347.892684 347.892684 347.892684s347.892684-156.064697 347.892684-347.892684c0-191.827987-156.064697-347.892684-347.892684-347.892684z m200.337498 347.955141c0-9.938855-8.054906-17.917993-17.994784-17.917993h-364.687475c-9.938855 0-17.994785 7.979138-17.994785 17.917993s8.054906 17.917993 17.994785 17.917993h364.687475c9.939879 0 17.994785-7.978114 17.994784-17.917993z" fill="#272636" p-id="1038"></path></svg>