<?xml version="1.0" standalone="no"?><!DOCTYPE svg PUBLIC "-//W3C//DTD SVG 1.1//EN" "http://www.w3.org/Graphics/SVG/1.1/DTD/svg11.dtd"><svg t="1734012159860" class="icon" viewBox="0 0 1024 1024" version="1.1" xmlns="http://www.w3.org/2000/svg" p-id="28831" xmlns:xlink="http://www.w3.org/1999/xlink" width="64" height="64"><path d="M362.9 495.6H130.8C58.7 495.6 0 436.9 0 364.8V132.7C0 60.6 58.7 1.9 130.8 1.9h232.1c72.1 0 130.8 58.7 130.8 130.8v232.1c0.1 72.1-58.6 130.8-130.8 130.8zM130.8 46.8c-47.4 0-86 38.6-86 86v232.1c0 47.4 38.6 86 86 86h232.1c47.4 0 86-38.6 86-86V132.7c0-47.4-38.6-86-86-86H130.8zM893.2 495.6H661.1c-72.1 0-130.8-58.7-130.8-130.8V132.7C530.3 60.6 589 1.9 661.1 1.9h232.1c72.2 0 130.8 58.7 130.8 130.8v232.1c0 72.1-58.7 130.8-130.8 130.8zM661.1 46.8c-47.4 0-86 38.6-86 86v232.1c0 47.4 38.6 86 86 86h232.1c47.4 0 86-38.6 86-86V132.7c0-47.4-38.6-86-86-86H661.1zM362.9 1022.1H130.8C58.7 1022.1 0 963.4 0 891.3V659.2C0 587 58.7 528.4 130.8 528.4h232.1c72.1 0 130.8 58.7 130.8 130.8v232.1c0.1 72.1-58.6 130.8-130.8 130.8zM130.8 573.3c-47.4 0-86 38.6-86 86v232.1c0 47.4 38.6 86 86 86h232.1c47.4 0 86-38.6 86-86V659.2c0-47.4-38.6-86-86-86H130.8zM893.2 1022.1H661.1c-72.1 0-130.8-58.7-130.8-130.8V659.2c0-72.2 58.7-130.8 130.8-130.8h232.1c72.2 0 130.8 58.7 130.8 130.8v232.1c0 72.1-58.7 130.8-130.8 130.8zM661.1 573.3c-47.4 0-86 38.6-86 86v232.1c0 47.4 38.6 86 86 86h232.1c47.4 0 86-38.6 86-86V659.2c0-47.4-38.6-86-86-86H661.1z" fill="#7D7D7D" p-id="28832"></path></svg>