<?xml version="1.0" standalone="no"?><!DOCTYPE svg PUBLIC "-//W3C//DTD SVG 1.1//EN" "http://www.w3.org/Graphics/SVG/1.1/DTD/svg11.dtd"><svg t="1734351088334" class="icon" viewBox="0 0 1024 1024" version="1.1" xmlns="http://www.w3.org/2000/svg" p-id="6918" xmlns:xlink="http://www.w3.org/1999/xlink" width="64" height="64"><path d="M781.69183326 208.64550758H545.75164771v269.67205834h269.67205835V242.36254883c0-9.29443336-3.28271508-17.21942138-9.9074707-23.83923364-6.5505979-6.57531762-14.50524903-9.87780761-23.8244021-9.87780761z m33.70220971 573.03149414V545.74176026H545.71209717v269.66711425h235.95996118c9.29937744 0 17.22930884-3.28765845 23.84417701-9.89758325 6.57531762-6.56048608 9.87780761-14.52502465 9.87780761-23.83428954z m-337.07153297-303.35449172V208.64550758H242.35266137c-9.3092649 0-17.22930884 3.30249-23.85406518 9.87780761-6.5505979 6.62475562-9.87780761 14.53985619-9.87780762 23.83923364v235.95501709h269.69183326z m0 337.05670143V545.71209717H208.62078857v235.94512963c0 9.29937744 3.32720971 17.22930884 9.87780762 23.85406446 6.62475562 6.56048608 14.54479957 9.86792016 23.85406518 9.86792017h235.95996046zM242.33288574 141.21142578h539.33422851c27.89318824 0 51.74725342 9.87780761 71.50286866 29.63342286C872.93054223 190.60046386 882.78857422 214.42980933 882.78857422 242.3427732v539.3144536c0 27.88824487-9.85803199 51.74230933-29.61364722 71.49792456-19.75561523 19.75561523-43.60968041 29.63342286-71.50286865 29.63342286H242.33782983c-27.92285133 0-51.75714087-9.87780761-71.50286866-29.63342286C151.07934594 833.39953614 141.21142578 809.55041503 141.21142578 781.6572268V242.3427732C141.21142578 214.42980933 151.07934594 190.60046386 170.83496117 170.84484863 190.58068824 151.08923339 214.41497779 141.21142578 242.33782983 141.21142578z" p-id="6919"></path></svg>