<?xml version="1.0" standalone="no"?><!DOCTYPE svg PUBLIC "-//W3C//DTD SVG 1.1//EN" "http://www.w3.org/Graphics/SVG/1.1/DTD/svg11.dtd"><svg t="1734012411184" class="icon" viewBox="0 0 1024 1024" version="1.1" xmlns="http://www.w3.org/2000/svg" p-id="54088" xmlns:xlink="http://www.w3.org/1999/xlink" width="64" height="64"><path d="M128 192h800v672H128z" fill="#FFFFFF" p-id="54089"></path><path d="M352 864h64v-32h-64v32z m128 0h64v-32h-64v32z m128 0h64v-32h-64v32z m128 0h64v-32h-64v32z m128 0h64v-32h-64v32z m65.024-97.792v-64h-32v64h32z m0-128v-64h-32v64h32z m0-128v-64h-32v64h32z m0-128v-64h-32v64h32z m0-128v-64h-32v64h32z" fill="#ACB4C0" p-id="54090"></path><path d="M928 160v64L286.24 864H128a32 32 0 0 1-32-32V192a32 32 0 0 1 32-32h800z m-32 50.656V192H128v640h144.992L896 210.656z" fill="#5D6D7E" p-id="54091"></path><path d="M256.64 544l22.688-62.432h109.856l24 62.432H473.6l-110.08-274.88H304.8L197.76 544h58.88z m114.72-108.736H296.384l37.12-102.016 37.856 102.016z" fill="#C49F74" p-id="54092"></path></svg>