<?xml version="1.0" standalone="no"?><!DOCTYPE svg PUBLIC "-//W3C//DTD SVG 1.1//EN" "http://www.w3.org/Graphics/SVG/1.1/DTD/svg11.dtd"><svg t="1734351991677" class="icon" viewBox="0 0 1024 1024" version="1.1" xmlns="http://www.w3.org/2000/svg" p-id="11744" xmlns:xlink="http://www.w3.org/1999/xlink" width="64" height="64"><path d="M649.289802 641.374559a110.702703 110.702703 0 0 0-15.996541 10.867315 118.248937 118.248937 0 0 0-9.741838 8.911567 111.108613 111.108613 0 0 0-28.967207 54.373478l-313.657657-385.614414a56.790486 56.790486 0 0 1 8.2289-79.872l263.841442 324.469621a17.324973 17.324973 0 0 0 26.993009-0.110703l7.38018-9.132973 171.589189-214.800144a94.097297 94.097297 0 0 0-14.76036-132.271279l-8.376505-6.679063a16.845261 16.845261 0 0 0-23.837982 2.509261L508.771171 468.641441 304.432432 217.401658a16.845261 16.845261 0 0 0-23.708828-2.45391l-8.284253 6.752865a94.097297 94.097297 0 0 0-13.634883 132.418882l229.892613 282.60555-62.344072 78.063856a111.090162 111.090162 0 0 0-29.520721-54.07827 107.012613 107.012613 0 0 0-9.815639-8.819316 111.385369 111.385369 0 1 0 38.063279 116.422343l84.503063-105.831784 86.717117 106.569802a111.551423 111.551423 0 1 0 52.989694-127.677117z m78.322162-394.83964a58.56173 58.56173 0 0 1 8.653261 8.579459 56.790486 56.790486 0 0 1 0.276757 71.218739L566.428829 539.43582l-36.661045-45.074451z m-332.440216 507.387387a78.303712 78.303712 0 0 1-15.848937 34.502343 79.115532 79.115532 0 1 1-12.454054-111.145514A81.93845 81.93845 0 0 1 376.389189 686.356757a79.170883 79.170883 0 0 1 18.782559 67.491748z m353.768937 49.816217a79.078631 79.078631 0 0 1-104.706307-117.031208 79.613694 79.613694 0 0 1 25.978235-19.483675 79.097081 79.097081 0 0 1 78.728072 136.533333z" p-id="11745"></path></svg>