<?xml version="1.0" standalone="no"?><!DOCTYPE svg PUBLIC "-//W3C//DTD SVG 1.1//EN" "http://www.w3.org/Graphics/SVG/1.1/DTD/svg11.dtd"><svg t="1734012352896" class="icon" viewBox="0 0 1024 1024" version="1.1" xmlns="http://www.w3.org/2000/svg" p-id="49324" xmlns:xlink="http://www.w3.org/1999/xlink" width="64" height="64"><path d="M307.196928 30.809719v-11.093223A19.541138 19.541138 0 0 0 287.229128 0.004693H0v282.023847c0 11.605217 9.215908 20.65046 20.99179 20.65046h9.215908A20.607794 20.607794 0 0 0 51.199488 282.02854V50.478855h236.02964c11.263887 0 19.9678-8.533248 19.9678-19.62647z m207.31526 306.770265a173.694263 173.694263 0 0 0-173.480932 173.438266 173.736929 173.736929 0 0 0 173.480932 173.438265 173.736929 173.736929 0 0 0 173.694263-173.438265A173.736929 173.736929 0 0 0 514.554854 337.494652z m-3.498631-112.254877c157.694423 0 266.664 83.412499 330.535361 153.342466 45.524878 49.834168 88.61778 116.009507 88.61778 136.105306 0 13.738529-29.141042 86.612467-96.767032 155.646443-82.217844 83.96716-192.424742 128.254717-318.588814 128.254718-169.9823 0-276.903898-78.676547-336.721966-144.510555C119.806802 589.65213 93.865728 527.572751 93.865728 514.772879c0-18.943811 41.684916-84.180492 83.96716-132.052013 63.828695-72.020613 173.438266-157.438426 333.180669-157.438425zM447.99552 480.767886a33.492998 33.492998 0 1 1 67.071329 0 33.492998 33.492998 0 0 1-67.071329 0z m-36.010307 30.079699a103.124302 103.124302 0 0 0 102.825639 103.081636 103.209635 103.209635 0 0 0 103.081636-103.081636 103.252301 103.252301 0 0 0-103.081636-103.081636 103.166968 103.166968 0 0 0-102.825639 103.081636z m-51.28482 0a154.32379 154.32379 0 0 1 154.110459-154.110459 154.409123 154.409123 0 0 1 154.409122 154.110459 154.451789 154.451789 0 0 1-154.451788 154.153125 154.366456 154.366456 0 0 1-154.067793-154.153125zM307.196928 993.232094v11.093223c0 11.093222-8.703913 19.669137-19.9678 19.669136H0v-281.938514c0-11.647884 9.215908-20.735793 20.99179-20.735792h9.215908c11.775882 0 20.99179 9.087909 20.99179 20.735792v231.464352h236.02964c11.263887 0 19.9678 8.575914 19.9678 19.711803z m409.595904 11.093223v-11.093223c0-11.093222 8.661247-19.711803 19.925134-19.711803H972.790272v-231.464352c0-11.647884 9.215908-20.735793 20.99179-20.735792h9.215908c11.775882 0 20.99179 9.087909 20.99179 20.735792V1023.994453h-287.229128a19.498472 19.498472 0 0 1-19.9678-19.62647z m0-984.608821v11.093223c0 11.093222 8.661247 19.669137 19.925134 19.669136H972.790272V282.02854c0 11.647884 9.215908 20.693126 20.99179 20.693126h9.215908A20.607794 20.607794 0 0 0 1023.98976 282.02854V0.004693h-287.229128a19.541138 19.541138 0 0 0-19.9678 19.711803z" fill="#666A76" p-id="49325"></path></svg>